<svg xmlns="http://www.w3.org/2000/svg" xmlns:xlink="http://www.w3.org/1999/xlink" width="500" zoomAndPan="magnify" viewBox="0 0 375 374.999991" height="500" preserveAspectRatio="xMidYMid meet" version="1.0"><defs><clipPath id="f8a47e9899"><path d="M 176.894531 114.144531 L 230.464844 114.144531 L 230.464844 160.792969 L 176.894531 160.792969 Z M 176.894531 114.144531 " clip-rule="nonzero"/></clipPath><clipPath id="eb0a8760cc"><path d="M 203.632812 114.144531 L 230.371094 160.792969 L 176.894531 160.792969 Z M 203.632812 114.144531 " clip-rule="nonzero"/></clipPath><clipPath id="9a6cdcd00e"><path d="M 176.898438 114.144531 L 230.144531 114.144531 L 230.144531 160.644531 L 176.898438 160.644531 Z M 176.898438 114.144531 " clip-rule="nonzero"/></clipPath><clipPath id="61d9fcb714"><path d="M 203.632812 114.144531 L 230.363281 160.785156 L 176.898438 160.785156 Z M 203.632812 114.144531 " clip-rule="nonzero"/></clipPath><clipPath id="5a52d92eb0"><path d="M 188 149 L 255 149 L 255 260 L 188 260 Z M 188 149 " clip-rule="nonzero"/></clipPath><clipPath id="830637bbad"><path d="M 176.894531 159.171875 L 234.214844 141.964844 L 266.609375 249.886719 L 209.292969 267.089844 Z M 176.894531 159.171875 " clip-rule="nonzero"/></clipPath><clipPath id="03a43900df"><path d="M 205.554688 150.566406 C 189.726562 155.320312 184.136719 183.289062 193.066406 213.046875 C 202 242.800781 222.070312 263.066406 237.898438 258.316406 C 253.726562 253.566406 259.316406 225.59375 250.386719 195.839844 C 241.453125 166.085938 221.382812 145.816406 205.554688 150.566406 Z M 205.554688 150.566406 " clip-rule="nonzero"/></clipPath><clipPath id="4330331240"><path d="M 196 136 L 271 136 L 271 269 L 196 269 Z M 196 136 " clip-rule="nonzero"/></clipPath><clipPath id="2933bc4300"><path d="M 283.898438 260.269531 L 254.316406 276.519531 L 182.105469 145.042969 L 211.683594 128.796875 Z M 283.898438 260.269531 " clip-rule="nonzero"/></clipPath><clipPath id="7cf449eb52"><path d="M 283.898438 260.269531 L 254.316406 276.519531 L 182.105469 145.042969 L 211.683594 128.796875 Z M 283.898438 260.269531 " clip-rule="nonzero"/></clipPath><clipPath id="2b2d963e56"><path d="M 184 129 L 260 129 L 260 233 L 184 233 Z M 184 129 " clip-rule="nonzero"/></clipPath><clipPath id="c196c6f76e"><path d="M 283.898438 260.269531 L 254.316406 276.519531 L 182.105469 145.042969 L 211.683594 128.796875 Z M 283.898438 260.269531 " clip-rule="nonzero"/></clipPath><clipPath id="cade0eb8ed"><path d="M 283.898438 260.269531 L 254.316406 276.519531 L 182.105469 145.042969 L 211.683594 128.796875 Z M 283.898438 260.269531 " clip-rule="nonzero"/></clipPath></defs><rect x="-37.5" width="450" fill="#ffffff" y="-37.499999" height="449.999989" fill-opacity="1"/><rect x="-37.5" width="450" fill="#ffffff" y="-37.499999" height="449.999989" fill-opacity="1"/><path stroke-linecap="round" transform="matrix(0.354196, -0.661094, 0.661094, 0.354196, 91.100689, 256.293178)" fill="none" stroke-linejoin="miter" d="M 29.999867 29.99887 L 210.270731 29.999337 " stroke="#eb0e0e" stroke-width="60" stroke-opacity="1" stroke-miterlimit="4"/><g clip-path="url(#f8a47e9899)"><g clip-path="url(#eb0a8760cc)"><path fill="#eb0e0e" d="M 176.894531 114.144531 L 230.285156 114.144531 L 230.285156 160.792969 L 176.894531 160.792969 Z M 176.894531 114.144531 " fill-opacity="1" fill-rule="nonzero"/></g></g><g clip-path="url(#9a6cdcd00e)"><g clip-path="url(#61d9fcb714)"><path stroke-linecap="butt" transform="matrix(0.75, 0, 0, 0.75, 176.897424, 114.145605)" fill="none" stroke-linejoin="miter" d="M 35.647185 -0.00143207 L 71.28781 62.186068 L 0.00135122 62.186068 Z M 35.647185 -0.00143207 " stroke="#eb0e0e" stroke-width="2" stroke-opacity="1" stroke-miterlimit="4"/></g></g><g clip-path="url(#5a52d92eb0)"><g clip-path="url(#830637bbad)"><g clip-path="url(#03a43900df)"><path fill="#ffffff" d="M 176.894531 159.171875 L 234.214844 141.964844 L 266.542969 249.660156 L 209.222656 266.867188 Z M 176.894531 159.171875 " fill-opacity="1" fill-rule="nonzero"/></g></g></g><g clip-path="url(#4330331240)"><g clip-path="url(#2933bc4300)"><g clip-path="url(#7cf449eb52)"><path fill="#ff5757" d="M 267.191406 262.066406 C 268.503906 261.921875 269.835938 262.558594 270.515625 263.792969 C 271.40625 265.414062 270.8125 267.457031 269.1875 268.347656 C 267.558594 269.246094 265.515625 268.648438 264.625 267.027344 C 263.945312 265.792969 264.125 264.324219 264.949219 263.296875 L 196.980469 136.882812 Z M 267.191406 262.066406 " fill-opacity="1" fill-rule="evenodd"/></g></g></g><g clip-path="url(#2b2d963e56)"><g clip-path="url(#c196c6f76e)"><g clip-path="url(#cade0eb8ed)"><path fill="#ff3131" d="M 255.886719 213.628906 C 257 213.210938 258.289062 213.65625 258.875 214.722656 C 259.519531 215.894531 259.089844 217.367188 257.917969 218.007812 C 256.75 218.652344 255.277344 218.222656 254.632812 217.054688 C 254.046875 215.984375 254.355469 214.664062 255.304688 213.949219 L 209.566406 129.972656 Z M 230.71875 227.453125 C 231.832031 227.03125 233.113281 227.480469 233.699219 228.550781 C 234.34375 229.722656 233.914062 231.195312 232.753906 231.832031 C 231.582031 232.472656 230.109375 232.046875 229.46875 230.875 C 228.878906 229.804688 229.1875 228.484375 230.140625 227.769531 L 184.398438 143.796875 Z M 230.71875 227.453125 " fill-opacity="1" fill-rule="evenodd"/></g></g></g></svg>